<svg xmlns="http://www.w3.org/2000/svg" xmlns:xlink="http://www.w3.org/1999/xlink" width="25" height="24" viewBox="0 0 25 24">
  <defs>
    <clipPath id="clip-photo_size_control_minus-disabled">
      <rect width="25" height="24"/>
    </clipPath>
  </defs>
  <g id="photo_size_control_minus-disabled" clip-path="url(#clip-photo_size_control_minus-disabled)">
    <g id="구성_요소_138_1" data-name="구성 요소 138 – 1">
      <path id="사각형_938" data-name="사각형 938" d="M4,0H25a0,0,0,0,1,0,0V24a0,0,0,0,1,0,0H4a4,4,0,0,1-4-4V4A4,4,0,0,1,4,0Z" fill="#fff"/>
      <path id="패스_52" data-name="패스 52" d="M6.821,11.442a4.069,4.069,0,0,0,1.627-.328,4.218,4.218,0,0,0,1.337-.908,4.307,4.307,0,0,0,.9-1.337,4.175,4.175,0,0,0,0-3.243A4.29,4.29,0,0,0,8.448,3.375a4.15,4.15,0,0,0-3.25,0A4.28,4.28,0,0,0,2.953,5.627a4.175,4.175,0,0,0,0,3.243,4.307,4.307,0,0,0,.9,1.337,4.206,4.206,0,0,0,1.341.908A4.077,4.077,0,0,0,6.821,11.442Zm0,1.348a5.418,5.418,0,0,1-2.15-.429,5.544,5.544,0,0,1-1.77-1.2,5.631,5.631,0,0,1-1.194-1.77,5.391,5.391,0,0,1-.429-2.147,5.41,5.41,0,0,1,.429-2.154A5.556,5.556,0,0,1,2.9,3.326a5.685,5.685,0,0,1,1.77-1.2A5.351,5.351,0,0,1,6.821,1.7a5.378,5.378,0,0,1,2.15.433A5.618,5.618,0,0,1,11.935,5.1a5.418,5.418,0,0,1,.429,2.15,5.391,5.391,0,0,1-.429,2.147,5.631,5.631,0,0,1-1.194,1.77,5.544,5.544,0,0,1-1.77,1.2A5.418,5.418,0,0,1,6.821,12.79Zm7.035,2.538a1.014,1.014,0,0,1-.354-.064.808.808,0,0,1-.309-.207L9.442,11.314,10.79,10l3.728,3.743a.782.782,0,0,1,.2.3,1.014,1.014,0,0,1,.064.354.985.985,0,0,1-.117.478.842.842,0,0,1-.328.335A.954.954,0,0,1,13.856,15.328ZM4.991,7.789H8.659a.508.508,0,0,0,.377-.162.527.527,0,0,0,.158-.38.539.539,0,0,0-.158-.384A.5.5,0,0,0,8.659,6.7H4.991a.523.523,0,0,0-.388.166.533.533,0,0,0-.162.384.521.521,0,0,0,.162.38A.529.529,0,0,0,4.991,7.789Z" transform="translate(4.965 3.733)" fill="#dadce0"/>
    </g>
  </g>
</svg>
